<svg width="400" height="400" viewBox="0 0 400 400" fill="none" xmlns="http://www.w3.org/2000/svg">
<rect width="400" height="400" fill="#3F51B5"/>
<path d="M261.879 335C257.852 335 254.249 334.368 251.069 333.103C247.89 332.049 245.135 330.153 242.803 327.413C240.684 324.462 238.671 320.353 236.763 315.084L211.647 244.587C210.376 240.794 208.892 236.473 207.197 231.626C205.501 226.568 203.699 221.404 201.792 216.135C200.096 210.867 198.507 205.914 197.023 201.277C195.751 196.641 194.692 192.637 193.844 189.265H192.572C191.089 196.852 188.757 205.598 185.578 215.503C182.611 225.409 179.75 234.576 176.994 243.006L147.746 331.839H117.861L180.173 161.761L171.908 140.581C168.516 131.308 163.642 124.353 157.283 119.716C151.137 115.08 142.977 112.761 132.803 112.761C128.988 112.761 125.597 112.972 122.63 113.394C119.875 113.815 117.331 114.237 115 114.658V92.529C116.908 91.8968 118.921 91.4753 121.04 91.2645C123.372 90.843 125.809 90.5269 128.353 90.3161C130.896 90.1054 133.545 90 136.301 90C147.322 90 156.753 91.7914 164.595 95.3742C172.649 98.957 179.538 104.542 185.26 112.129C191.195 119.716 196.387 129.516 200.838 141.529L261.243 301.174C262.514 304.125 263.574 306.443 264.422 308.129C265.27 309.604 266.223 310.658 267.283 311.29C268.555 311.923 269.933 312.239 271.416 312.239C273.112 312.239 274.701 312.028 276.185 311.606C277.669 311.185 278.94 310.869 280 310.658V331.206C278.516 331.839 276.821 332.471 274.913 333.103C273.006 333.735 270.992 334.157 268.873 334.368C266.753 334.789 264.422 335 261.879 335Z" fill="white"/>
<path d="M225.985 74.093H214V65H285V74.093H273.015V124.907H285V134H277.444C272.32 134 268.542 132.529 266.11 129.587C263.765 126.645 262.593 122.857 262.593 118.221V74.093H236.407V134H225.985V74.093Z" fill="white"/>
</svg>
