<svg width="170" height="270" viewBox="0 0 170 270" fill="none" xmlns="http://www.w3.org/2000/svg">
<path d="M146.879 270C142.852 270 139.249 269.368 136.069 268.103C132.89 267.049 130.135 265.153 127.803 262.413C125.684 259.462 123.671 255.353 121.763 250.084L96.6474 179.587C95.3757 175.794 93.8921 171.473 92.1965 166.626C90.501 161.568 88.6994 156.404 86.7919 151.135C85.0963 145.867 83.5067 140.914 82.0231 136.277C80.7514 131.641 79.6917 127.637 78.8439 124.265H77.5723C76.0886 131.852 73.7572 140.598 70.578 150.503C67.6108 160.409 64.7495 169.576 61.9942 178.006L32.7457 266.839H2.86127L65.1734 96.7613L56.9075 75.5806C53.5164 66.3075 48.6416 59.3527 42.2832 54.7161C36.1368 50.0796 27.9769 47.7613 17.8035 47.7613C13.9884 47.7613 10.5973 47.972 7.63006 48.3935C4.87476 48.8151 2.33141 49.2366 0 49.6581V27.529C1.90751 26.8968 3.921 26.4753 6.04046 26.2645C8.37187 25.843 10.8092 25.5269 13.3526 25.3161C15.896 25.1054 18.5453 25 21.3006 25C32.3218 25 41.7534 26.7914 49.5954 30.3742C57.6493 33.957 64.5376 39.5419 70.2601 47.129C76.1946 54.7161 81.3873 64.5161 85.8381 76.529L146.243 236.174C147.514 239.125 148.574 241.443 149.422 243.129C150.27 244.604 151.223 245.658 152.283 246.29C153.555 246.923 154.933 247.239 156.416 247.239C158.112 247.239 159.701 247.028 161.185 246.606C162.669 246.185 163.94 245.869 165 245.658V266.206C163.516 266.839 161.821 267.471 159.913 268.103C158.006 268.735 155.992 269.157 153.873 269.368C151.753 269.789 149.422 270 146.879 270Z" fill="white"/>
<path d="M110.985 9.09303H99V0H170V9.09303H158.015V59.907H170V69H162.444C157.32 69 153.542 67.5291 151.11 64.5872C148.765 61.6453 147.593 57.8566 147.593 53.2209V9.09303H121.407V69H110.985V9.09303Z" fill="white"/>
</svg>
